<?xml version="1.0" encoding="iso-8859-1"?>
<!-- Generator: Adobe Illustrator 18.0.0, SVG Export Plug-In . SVG Version: 6.00 Build 0)  -->
<!DOCTYPE svg PUBLIC "-//W3C//DTD SVG 1.1//EN" "http://www.w3.org/Graphics/SVG/1.1/DTD/svg11.dtd">
<svg version="1.1" id="Layer_7" xmlns="http://www.w3.org/2000/svg" xmlns:xlink="http://www.w3.org/1999/xlink" x="0px" y="0px"
	 width="64px" height="64px" viewBox="0 0 64 64" style="enable-background:new 0 0 64 64;" xml:space="preserve">
<g>
	<linearGradient id="SVGID_1_" gradientUnits="userSpaceOnUse" x1="32" y1="6" x2="32" y2="58">
		<stop  offset="0" style="stop-color:#1A6DFF"/>
		<stop  offset="1" style="stop-color:#C822FF"/>
	</linearGradient>
	<path style="fill:url(#SVGID_1_);" d="M32,58C17.664,58,6,46.337,6,32C6,17.664,17.664,6,32,6s26,11.664,26,26
		C58,46.337,46.336,58,32,58z M32,8C18.767,8,8,18.767,8,32s10.767,24,24,24s24-10.767,24-24S45.233,8,32,8z"/>
</g>
<linearGradient id="SVGID_2_" gradientUnits="userSpaceOnUse" x1="21.922" y1="25.8715" x2="22.0809" y2="44.4623">
	<stop  offset="0" style="stop-color:#6DC7FF"/>
	<stop  offset="1" style="stop-color:#E6ABFF"/>
</linearGradient>
<rect x="19" y="26" style="fill:url(#SVGID_2_);" width="6" height="18"/>
<linearGradient id="SVGID_3_" gradientUnits="userSpaceOnUse" x1="22.4741" y1="17.9657" x2="22.5269" y2="24.1453">
	<stop  offset="0" style="stop-color:#6DC7FF"/>
	<stop  offset="1" style="stop-color:#E6ABFF"/>
</linearGradient>
<ellipse style="fill:url(#SVGID_3_);" cx="22.5" cy="21" rx="3.5" ry="3"/>
<g>
	<linearGradient id="SVGID_4_" gradientUnits="userSpaceOnUse" x1="38.0771" y1="25.9833" x2="37.9224" y2="44.0763">
		<stop  offset="0" style="stop-color:#6DC7FF"/>
		<stop  offset="1" style="stop-color:#E6ABFF"/>
	</linearGradient>
	<path style="fill:url(#SVGID_4_);" d="M40,26h-0.529H39.47c-2.187,0-4,1.572-4.387,3.647H35V26h-6v18h6v-8.588v-1.529
		c0.007-0.379,0.037-0.729,0.084-1.06C35.392,31.493,36.577,30.5,38,30.5c1.657,0,3,1.343,3,3v0.559v1.176V44h6v-9.118v-0.823V33
		C47,29.134,43.866,26,40,26z"/>
</g>
</svg>